<svg width="24" height="24" viewBox="0 0 24 24" fill="none" xmlns="http://www.w3.org/2000/svg">
<path d="M2.57143 0C1.15179 0 0 1.15179 0 2.57143V21.4286C0 22.8482 1.15179 24 2.57143 24H21.4286C22.8482 24 24 22.8482 24 21.4286V2.57143C24 1.15179 22.8482 0 21.4286 0H2.57143ZM10.1087 3.42857H19.6572L18.7749 4.1175V5.3332C19.1026 5.37525 19.0679 5.57213 19.0679 5.80768V11.5518C19.0679 11.8177 18.8503 12.0355 18.5843 12.0355H18.4062C18.1401 12.0355 17.9224 11.8177 17.9224 11.5518V5.80768C17.9224 5.57154 17.8881 5.3745 18.2183 5.33298V4.56873L15.6777 6.65229C15.707 6.70671 15.7349 6.74159 15.7614 6.78729C15.9846 7.18248 16.0983 7.67379 16.0983 8.27443C16.0983 8.73471 16.0216 9.14839 15.866 9.51354C15.7112 9.87873 15.5228 10.177 15.3031 10.4068C15.0834 10.6374 14.863 10.848 14.6426 11.0377C14.4222 11.2278 14.2339 11.4259 14.0796 11.6317C13.9242 11.8368 13.8468 12.0489 13.8468 12.2686C13.8468 12.4887 13.9473 12.7122 14.1475 12.9375C14.347 13.1635 14.5924 13.3825 14.8826 13.5988C15.1735 13.8136 15.4637 14.0522 15.7539 14.3116C16.0447 14.5707 16.2889 14.9042 16.4884 15.3092C16.6893 15.7156 16.7897 16.163 16.7897 16.6548C16.7897 17.3035 16.6243 17.8894 16.2944 18.4108C15.9637 18.9301 15.5327 19.3445 15.0033 19.6483C14.4724 19.9541 13.9046 20.1843 13.2992 20.3399C12.6924 20.494 12.0904 20.5714 11.489 20.5714C11.1048 20.5713 10.7211 20.5415 10.3415 20.4822C9.95513 20.4222 9.56802 20.3162 9.17807 20.1669C8.78748 20.0166 8.44146 19.8321 8.14146 19.6103C7.84088 19.3909 7.59879 19.1077 7.41327 18.7628C7.2277 18.4178 7.13555 18.0299 7.13555 17.5992C7.13555 17.0883 7.27789 16.6143 7.56321 16.1724C7.84848 15.7337 8.22654 15.3674 8.69668 15.0773C9.51702 14.567 10.804 14.2518 12.5555 14.1325C12.1551 13.632 11.9542 13.1607 11.9542 12.7198C11.9542 12.469 12.0197 12.2002 12.1495 11.91C11.936 11.9401 11.7206 11.9554 11.505 11.9557C10.5641 11.9557 9.7695 11.6499 9.12429 11.0339C8.47907 10.419 8.15689 9.64934 8.15689 8.71875C8.15689 8.62146 8.15968 8.53559 8.16659 8.44071H4.34271L10.1087 3.42857ZM11.7897 5.48218C11.1897 5.48218 10.7294 5.69802 10.4086 6.12879C10.0877 6.55843 9.9273 7.07891 9.92727 7.69023C9.92727 8.21095 10.0151 8.74109 10.1909 9.28168C10.366 9.82195 10.6528 10.3044 11.0546 10.7294C11.4549 11.1557 11.9209 11.3683 12.4503 11.3683C13.0405 11.3683 13.5016 11.1707 13.8322 10.7752C14.1614 10.3804 14.3267 9.88195 14.3267 9.28163C14.3267 8.77034 14.2396 8.23505 14.0645 7.67523C13.8901 7.11477 13.5992 6.60905 13.1932 6.15884C12.7886 5.70712 12.3199 5.48218 11.7897 5.48218ZM12.7817 14.7008C12.3512 14.7008 11.9277 14.7389 11.512 14.8149C11.0963 14.8888 10.6862 15.0136 10.2816 15.1898C9.87557 15.365 9.54777 15.6224 9.29802 15.9628C9.04693 16.3028 8.92195 16.7032 8.92195 17.164C8.92195 17.603 9.0323 17.9947 9.25275 18.3358C9.4725 18.6747 9.76264 18.9403 10.1233 19.1304C10.4839 19.3208 10.862 19.4644 11.2568 19.5589C11.6523 19.6527 12.0548 19.7016 12.4649 19.7016C13.2761 19.7016 13.9743 19.5189 14.5603 19.1537C15.1447 18.7885 15.4378 18.2246 15.4378 17.4635C15.4378 17.3035 15.4155 17.1457 15.3715 16.992C15.3255 16.8364 15.2802 16.7033 15.2356 16.5927C15.1909 16.4842 15.1059 16.3534 14.9803 16.2027C14.8866 16.0894 14.7917 15.9771 14.6956 15.8658C14.63 15.7891 14.5074 15.6796 14.3267 15.5347C14.1475 15.3894 14.0331 15.2988 13.9821 15.2653H13.982C13.9317 15.23 13.8013 15.1348 13.5914 14.9802C13.3815 14.8243 13.2664 14.7415 13.2461 14.7318C13.1359 14.712 12.9812 14.7008 12.7817 14.7008Z" fill="black"/>
</svg>
