<svg width="24" height="24" viewBox="0 0 24 24" fill="none" xmlns="http://www.w3.org/2000/svg">
<g clip-path="url(#clip0_215_235)">
<path d="M24 24H0V0H24V24ZM15.014 8.994V16.32C15.014 16.518 15.014 16.554 14.887 16.682L13.585 17.946V18.216H19.905V17.946L18.648 16.712C18.5934 16.67 18.5513 16.6139 18.5261 16.5498C18.5009 16.4857 18.4936 16.4159 18.505 16.348V16.35V7.28C18.4944 7.21268 18.502 7.14375 18.5272 7.08041C18.5523 7.01707 18.5941 6.96167 18.648 6.92L18.649 6.919L19.935 5.685V5.415H15.479L12.303 13.339L8.694 5.415H4.019V5.686L5.521 7.499C5.59412 7.5652 5.65067 7.64765 5.68611 7.73971C5.72154 7.83177 5.73486 7.93086 5.725 8.029V8.026V15.152C5.74635 15.2788 5.73756 15.4089 5.69934 15.5317C5.66113 15.6546 5.59455 15.7667 5.505 15.859L3.815 17.913V18.183H8.615V17.913L6.924 15.859C6.83335 15.766 6.76522 15.6535 6.72483 15.5301C6.68444 15.4066 6.67287 15.2756 6.691 15.147V15.151V8.991L10.906 18.186H11.396L15.014 8.994Z" fill="black"/>
</g>
<defs>
<clipPath id="clip0_215_235">
<rect width="24" height="24" rx="2" fill="white"/>
</clipPath>
</defs>
</svg>
