<svg width="24" height="24" viewBox="0 0 24 24" fill="none" xmlns="http://www.w3.org/2000/svg">
<path d="M2.57143 0C1.15179 0 0 1.15179 0 2.57143V21.4286C0 22.8482 1.15179 24 2.57143 24H21.4286C22.8482 24 24 22.8482 24 21.4286V2.57143C24 1.15179 22.8482 0 21.4286 0H2.57143ZM12 3.42857C16.7343 3.42857 20.5714 7.26642 20.5714 12C20.5714 16.7336 16.7343 20.5714 12 20.5714C7.26572 20.5714 3.42857 16.7336 3.42857 12C3.42857 7.26642 7.26572 3.42857 12 3.42857ZM8.64572 6.54932C8.25999 6.54932 7.9472 6.86283 7.9472 7.24711C7.9472 7.63425 8.26072 7.94573 8.64572 7.94573C9.03214 7.94573 9.34421 7.63496 9.34497 7.24711C9.34497 6.86211 9.03214 6.54932 8.64572 6.54932ZM8.13857 8.68715V15.7851H9.15423V8.68715H8.13857ZM10.7386 8.68715V15.7743H12.9836C13.6143 15.7743 14.0408 15.7572 14.2651 15.7222C14.4886 15.6857 14.7336 15.615 15.0015 15.5107C15.4593 15.3378 15.8608 15.0835 16.2058 14.7435C16.5451 14.415 16.8057 14.0336 16.9885 13.6H16.9886C17.1708 13.1672 17.2636 12.7128 17.2629 12.2371C17.2629 11.5742 17.0964 10.9608 16.7643 10.3986C16.4322 9.83719 15.9857 9.41002 15.4235 9.12075C14.8607 8.83075 14.0979 8.68715 13.1315 8.68715H10.7386ZM11.7564 9.59138H13.025C13.5135 9.59138 13.8665 9.6093 14.0865 9.64715C14.3072 9.68357 14.54 9.76077 14.7864 9.87577V9.87566C15.0307 9.99138 15.2492 10.1393 15.4392 10.3178C15.9542 10.7993 16.2114 11.4214 16.2114 12.1835C16.2114 12.9592 15.9607 13.6007 15.46 14.1093C15.3035 14.2657 15.1315 14.3965 14.9436 14.5029C14.7558 14.61 14.5214 14.6972 14.24 14.7665C13.9585 14.8357 13.5643 14.8707 13.0572 14.8707H11.7564V9.59138Z" fill="black"/>
</svg>
