<svg width="24" height="24" viewBox="0 0 24 24" fill="none" xmlns="http://www.w3.org/2000/svg">
<path d="M2.57143 0C1.15179 0 0 1.15179 0 2.57143V21.4286C0 22.8482 1.15179 24 2.57143 24H21.4286C22.8482 24 24 22.8482 24 21.4286V2.57143C24 1.15179 22.8482 0 21.4286 0H2.57143ZM17.4215 3.42857C17.7229 3.42857 17.9964 3.46345 18.2389 3.53464C18.4787 3.60525 18.6937 3.70259 18.8834 3.8272C19.0704 3.95052 19.2322 4.09575 19.3657 4.26016C19.5 4.4213 19.6122 4.59964 19.6993 4.79046C19.7329 4.85073 19.7234 4.89868 19.6699 4.93221L18.9252 5.23838C18.8622 5.27202 18.8178 5.25488 18.7827 5.18839C18.6156 4.87875 18.4731 4.67534 18.2389 4.52743C18.0018 4.38011 17.7826 4.3102 17.4215 4.3102C17.029 4.3102 16.8536 4.38825 16.6077 4.56434C16.3638 4.737 16.185 4.95412 16.0795 5.28493C16.0583 5.34461 16.0391 5.41864 16.0165 5.50564C15.998 5.59404 15.9829 5.70225 15.9734 5.82895C15.9638 5.9557 15.9548 6.11261 15.9466 6.29759C15.9411 6.48257 15.9385 6.7072 15.9385 6.96755C15.9385 7.2292 15.9411 7.45388 15.9466 7.6388C15.9548 7.82309 15.9638 7.98005 15.9734 8.10675C15.9829 8.23484 15.998 8.34246 16.0165 8.43155C16.0391 8.51716 16.0583 8.59104 16.0795 8.65136C16.185 8.98082 16.3357 9.16104 16.5576 9.30563C16.7769 9.45225 17.029 9.55779 17.4215 9.55779C17.7702 9.55779 18.0895 9.45841 18.2977 9.30696C18.5039 9.15562 18.6752 8.95559 18.7519 8.68221C18.7855 8.56714 18.8286 8.42389 18.8581 8.24855C18.8848 8.07316 18.8849 7.88759 18.8849 7.63141C18.8849 7.59096 18.8622 7.57034 18.8245 7.57034H17.6318C17.5647 7.57034 17.5318 7.5375 17.5318 7.47038V6.78675C17.5318 6.71888 17.5647 6.68598 17.6318 6.68598H19.8206C19.8891 6.68598 19.9213 6.71887 19.9213 6.7867V7.371C19.9213 7.68064 19.9213 7.96779 19.8891 8.23355C19.8583 8.49937 19.8166 8.72946 19.7638 8.89725C19.5966 9.42279 19.3315 9.79688 18.9252 10.0756C18.5176 10.3565 17.9922 10.5078 17.4215 10.5078C16.8351 10.5078 16.3412 10.373 15.9385 10.1051C15.535 9.83384 15.2464 9.4357 15.0704 8.90341C15.0367 8.80128 15.0101 8.69692 14.991 8.59109C14.9704 8.48357 14.9519 8.35816 14.9354 8.21357C14.9183 8.0677 14.9074 7.89648 14.9006 7.69441C14.8937 7.49373 14.891 7.24843 14.891 6.96755C14.891 6.68523 14.8938 6.44352 14.9006 6.24214C14.9074 6.04002 14.9183 5.86661 14.9354 5.72207C14.9518 5.57823 14.9704 5.45223 14.991 5.34471C15.0108 5.2365 15.0369 5.13364 15.0705 5.03298C15.2465 4.5007 15.535 4.10062 15.9385 3.83202C16.3412 3.56346 16.8351 3.42857 17.4215 3.42857ZM9.29604 7.59713C11.6301 7.59713 13.4105 8.66095 13.4105 10.9532C13.4105 12.5082 12.1828 14.0647 10.5251 14.4524C11.5286 16.2336 12.735 17.8093 13.6365 18.7903C14.1668 19.3637 14.9033 19.8761 15.6396 19.8761V20.4071C15.4151 20.5105 15.0471 20.5714 14.6997 20.5714C13.5126 20.5714 12.572 20.1014 11.9569 19.3637C11.2827 18.5868 10.0955 16.9077 8.84727 14.6778C8.19102 14.6778 7.76148 14.6778 7.27029 14.6367V18.0538C7.27029 19.3232 7.55807 19.5897 8.11018 19.6699L9.1748 19.8151V20.407C8.66304 20.3872 7.47584 20.3467 6.55516 20.3467C5.59259 20.3467 4.63071 20.3872 4.07855 20.4071V19.815L4.8555 19.6698C5.38982 19.5685 5.694 19.3232 5.694 18.0537V9.99139C5.694 8.72132 5.38982 8.47741 4.8555 8.37461L4.07861 8.23211V7.63821C4.58893 7.65804 5.4083 7.65804 6.22838 7.65804C7.12709 7.65804 8.08966 7.59713 9.29604 7.59713ZM8.92816 8.51775C8.3753 8.51775 7.7423 8.51775 7.27029 8.55889V13.6934C7.7423 13.7379 8.04788 13.7564 8.74393 13.7564C10.5662 13.7564 11.6705 12.672 11.6705 11.0553C11.6705 9.41941 10.6483 8.51775 8.92816 8.51775Z" fill="black"/>
</svg>
