<svg width="24" height="24" viewBox="0 0 24 24" fill="none" xmlns="http://www.w3.org/2000/svg">
<path opacity="0.999" d="M2 -0.375C0.89543 -0.375 0 0.520431 0 1.625V21.625C0 22.7296 0.895431 23.625 2 23.625H22C23.1046 23.625 24 22.7296 24 21.625V1.625C24 0.52043 23.1046 -0.375 22 -0.375H2ZM7.30094 5.87037C8.48791 5.87037 9.10865 5.98842 9.79837 6.2445C10.0161 6.32532 10.1496 6.54292 10.1349 6.77466V6.77466C10.1092 7.18039 9.66155 7.41446 9.28337 7.26529C8.68968 7.03111 8.11437 6.9525 7.38169 6.9525C6.1705 6.9525 5.55669 7.87294 5.55669 8.71269C5.55669 9.84319 6.63875 10.2631 7.65619 10.8768C8.96431 11.652 10.3209 12.3464 10.3209 13.8807C10.3209 15.8994 8.59281 16.9167 6.94556 16.9167C5.95128 16.9167 5.18679 16.7904 4.46795 16.5183C4.22938 16.428 4.09738 16.1779 4.1357 15.9257V15.9257C4.19713 15.5214 4.64997 15.3136 5.02651 15.4731C5.57427 15.7052 6.14073 15.8187 6.88113 15.8187C7.97925 15.8187 8.89969 15.0757 8.89969 14.0422C8.89969 12.9763 7.86625 12.5724 6.88113 11.9749C5.55681 11.1674 4.10338 10.4568 4.10338 8.80956C4.10338 7.16231 5.31456 5.87037 7.30094 5.87037ZM17.4075 5.87037C18.8253 5.87037 19.5599 6.01688 20.3111 6.33098C20.5194 6.41806 20.6417 6.633 20.6237 6.85805V6.85805C20.5922 7.25089 20.1633 7.48258 19.7937 7.34586C19.0431 7.0682 18.2291 6.9525 17.246 6.9525C15.1465 6.9525 13.3539 8.61581 13.3539 11.3128C13.3539 13.8644 15.1789 15.7862 17.4721 15.7862C18.2492 15.7862 19.0263 15.6712 19.7772 15.3952C20.1552 15.2563 20.5923 15.4951 20.624 15.8967V15.8967C20.6419 16.1228 20.5218 16.3399 20.3112 16.4242C19.4996 16.749 18.5156 16.8845 17.3592 16.8845C14.7267 16.8845 11.9006 14.9464 11.9006 11.4097C11.9006 8.30894 14.2744 5.87031 17.4074 5.87031" fill="black"/>
</svg>
