<svg width="141" height="140" viewBox="0 0 141 140" fill="none" xmlns="http://www.w3.org/2000/svg">
<path d="M99.0059 91.4844C102.994 85.3778 105.448 77.8271 106.298 69.0422C106.908 62.7371 106.663 56.463 106.309 50.6224C106.08 46.8622 103.502 43.7188 99.8922 42.8005C85.5134 39.1425 78.3251 34.6214 75.3199 32.2519C72.2443 29.8269 67.9482 29.8268 64.8725 32.2519C61.8674 34.6214 54.679 39.1425 40.3001 42.8005C36.6905 43.7189 34.112 46.8622 33.8837 50.6224C33.529 56.4631 33.2848 62.7369 33.8944 69.0423C34.7447 77.8272 37.1981 85.3779 41.1864 91.4843C43.8537 95.5686 47.585 99.4939 52.2766 103.151C56.2711 106.264 60.9897 109.209 66.3014 111.904C67.4895 112.506 68.7928 112.808 70.0962 112.808C71.3995 112.808 72.7028 112.506 73.8909 111.904C79.2026 109.209 83.9213 106.264 87.9157 103.151C92.6074 99.4938 96.3387 95.5686 99.0059 91.4844ZM84.4859 98.6361C80.7756 101.528 76.3637 104.278 71.3726 106.81C70.5733 107.215 69.6189 107.215 68.8196 106.81C63.8285 104.278 59.4166 101.528 55.7063 98.6361C51.5079 95.3636 48.2008 91.8999 45.8768 88.3412C42.3996 83.0174 40.2512 76.3372 39.4913 68.4867C38.9202 62.5787 39.1565 56.5774 39.4968 50.9721C39.5741 49.7002 40.4473 48.6366 41.6699 48.3256C48.2711 46.6462 60.5119 42.9088 68.3269 36.7472C68.8476 36.3365 69.4719 36.1312 70.0961 36.1312C70.7203 36.1312 71.3444 36.3365 71.8653 36.7472C79.6802 42.9088 91.921 46.6463 98.5221 48.3256C99.7447 48.6366 100.618 49.7002 100.695 50.9721C101.036 56.5774 101.272 62.5787 100.701 68.4863C99.9408 76.3372 97.7926 83.0174 94.3152 88.3414C91.9915 91.8998 88.6843 95.3636 84.4859 98.6361Z" fill="#FDFEEC"/>
<path d="M70.0962 57.7422C65.758 57.7422 62.2411 61.3046 62.2411 65.6988C62.2411 68.6902 63.8709 71.2958 66.2804 72.6546L65.023 83.152C64.8649 84.473 65.8829 85.6372 67.1964 85.6372H72.9961C74.3097 85.6372 75.3277 84.4729 75.1696 83.152L73.9121 72.6546C76.3217 71.2958 77.9514 68.6902 77.9514 65.6988C77.9512 61.3046 74.4344 57.7422 70.0962 57.7422Z" fill="#FDFEEC"/>
<path d="M68.0876 11.3513V29.0126C68.7464 28.8759 69.4197 28.8059 70.0962 28.8059C70.7727 28.8059 71.4459 28.8759 72.1047 29.0126V11.3994C74.3481 10.5897 75.9545 8.42014 75.9545 5.86967C75.9545 2.62795 73.3601 0 70.1597 0C66.9594 0 64.365 2.62795 64.365 5.86967C64.365 8.37156 65.911 10.5065 68.0876 11.3513Z" fill="#FDFEEC"/>
<path d="M134.301 62.2344C131.832 62.2344 129.724 63.8002 128.89 66.0048H108.139C108.081 67.0408 108.005 68.08 107.905 69.1217L107.897 69.2015C107.869 69.4936 107.839 69.7842 107.807 70.0739H128.842C129.642 72.3465 131.783 73.9737 134.301 73.9737C137.502 73.9737 140.096 71.3458 140.096 68.104C140.096 64.8623 137.502 62.2344 134.301 62.2344Z" fill="#FDFEEC"/>
<path d="M129.544 40.3171V46.7419C129.544 47.4149 129.004 47.9626 128.339 47.9626H107.433C107.695 48.7772 107.858 49.635 107.912 50.522C107.943 51.0217 107.973 51.5255 108.001 52.0317H128.339C131.219 52.0317 133.562 49.6586 133.562 46.7419V40.3173C135.772 39.49 137.348 37.3366 137.348 34.8101C137.348 31.5684 134.754 28.9404 131.553 28.9404C128.353 28.9404 125.759 31.5684 125.759 34.8101C125.759 37.3364 127.334 39.4895 129.544 40.3171Z" fill="#FDFEEC"/>
<path d="M92.2834 38.874L92.2826 20.8644C92.2826 20.1914 92.8233 19.6437 93.4877 19.6437H111.042C111.859 21.8827 113.985 23.4791 116.479 23.4791C119.679 23.4791 122.274 20.8511 122.274 17.6094C122.274 14.3677 119.679 11.7397 116.479 11.7397C113.985 11.7397 111.859 13.3359 111.042 15.5747H93.4876C90.6082 15.5747 88.2654 17.9477 88.2654 20.8644L88.2662 37.4075C89.5027 37.895 90.8388 38.3865 92.2834 38.874Z" fill="#FDFEEC"/>
<path d="M72.1047 128.601V114.23C71.4451 114.366 70.7711 114.436 70.0962 114.436C69.4213 114.436 68.7472 114.366 68.0876 114.23V128.649C65.911 129.493 64.365 131.628 64.365 134.13C64.365 137.372 66.9594 140 70.1597 140C73.3601 140 75.9545 137.372 75.9545 134.13C75.9545 131.58 74.3481 129.41 72.1047 128.601Z" fill="#FDFEEC"/>
<path d="M133.562 95.8887V89.4641C133.562 86.5474 131.219 84.1743 128.339 84.1743H104.507C103.968 85.5806 103.371 86.9372 102.717 88.2434H128.339C129.004 88.2434 129.544 88.791 129.544 89.4641V95.8889C127.334 96.7164 125.759 98.8696 125.759 101.396C125.759 104.638 128.353 107.266 131.553 107.266C134.754 107.266 137.348 104.638 137.348 101.396C137.348 98.8693 135.772 96.716 133.562 95.8887Z" fill="#FDFEEC"/>
<path d="M116.479 112.729C113.985 112.729 111.859 114.325 111.042 116.564H93.4877C92.8233 116.564 92.2826 116.017 92.2826 115.344L92.2834 101.609C91.2141 102.57 90.0844 103.514 88.8954 104.441C88.6873 104.603 88.4776 104.764 88.2663 104.925L88.2655 115.344C88.2655 118.26 90.6083 120.633 93.4877 120.633H111.042C111.859 122.872 113.985 124.468 116.479 124.468C119.68 124.468 122.274 121.84 122.274 118.599C122.274 115.357 119.68 112.729 116.479 112.729Z" fill="#FDFEEC"/>
<path d="M11.3503 70.0739H32.3852C32.3539 69.7842 32.3233 69.4936 32.2952 69.2015C32.1924 68.1338 32.1128 67.0669 32.0542 66.0048H11.3026C10.4685 63.8002 8.36082 62.2344 5.89095 62.2344C2.6906 62.2344 0.0961914 64.8623 0.0961914 68.104C0.0961914 71.3458 2.6906 73.9737 5.89095 73.9737C8.40895 73.9737 10.5509 72.3465 11.3503 70.0739Z" fill="#FDFEEC"/>
<path d="M6.63064 40.3173V46.7419C6.63064 49.6586 8.97342 52.0317 11.8529 52.0317H32.1915C32.2196 51.5255 32.2493 51.0225 32.2799 50.522C32.3337 49.635 32.4976 48.7772 32.7595 47.9626H11.8529C11.1884 47.9626 10.6477 47.4149 10.6477 46.7419V40.3171C12.8579 39.4896 14.4336 37.3364 14.4336 34.8101C14.4336 31.5684 11.8392 28.9404 8.63887 28.9404C5.43852 28.9404 2.84412 31.5684 2.84412 34.8101C2.8442 37.3366 4.42019 39.4899 6.63064 40.3173Z" fill="#FDFEEC"/>
<path d="M23.7131 23.4791C26.2073 23.4791 28.3332 21.8826 29.1499 19.6437H46.7045C47.3689 19.6437 47.9096 20.1914 47.9096 20.8644L47.9088 38.874C49.3534 38.3865 50.6895 37.895 51.9259 37.4075L51.9267 20.8644C51.9267 17.9477 49.584 15.5747 46.7045 15.5747H29.1498C28.3328 13.3359 26.2072 11.7397 23.7131 11.7397C20.5127 11.7397 17.9183 14.3677 17.9183 17.6094C17.9183 20.8511 20.5127 23.4791 23.7131 23.4791Z" fill="#FDFEEC"/>
<path d="M10.6478 95.8889V89.4641C10.6478 88.791 11.1885 88.2434 11.8529 88.2434H37.4748C36.8208 86.9372 36.2247 85.5806 35.6856 84.1743H11.8529C8.97346 84.1743 6.63068 86.5474 6.63068 89.4641V95.8887C4.42023 96.716 2.84424 98.8693 2.84424 101.396C2.84424 104.638 5.43865 107.266 8.63899 107.266C11.8393 107.266 14.4338 104.638 14.4338 101.396C14.4337 98.8696 12.8579 96.7164 10.6478 95.8889Z" fill="#FDFEEC"/>
<path d="M51.2969 104.441C50.1078 103.514 48.9782 102.57 47.9088 101.609L47.9096 115.344C47.9096 116.017 47.3689 116.564 46.7045 116.564H29.1499C28.3331 114.325 26.2073 112.729 23.7131 112.729C20.5127 112.729 17.9183 115.357 17.9183 118.599C17.9183 121.84 20.5127 124.468 23.7131 124.468C26.2072 124.468 28.3328 122.872 29.1498 120.633H46.7045C49.584 120.633 51.9267 118.26 51.9267 115.344L51.9259 104.925C51.7146 104.764 51.505 104.603 51.2969 104.441Z" fill="#FDFEEC"/>
</svg>
