<svg width="128" height="123" viewBox="0 0 128 123" fill="none" xmlns="http://www.w3.org/2000/svg">
<path d="M89.3051 9.60948C78.6583 9.60948 69.9957 18.2308 69.9957 28.8284V98.9767C69.9957 109.574 61.3338 118.196 50.6863 118.196C40.0395 118.196 31.3769 109.574 31.3769 98.9767V81.6795H36.2039C37.5366 81.6795 38.6174 80.6037 38.6174 79.2773V68.0192C49.8553 64.0524 57.9268 53.3679 57.9268 40.8394V16.8161C57.9268 10.8918 53.5945 5.95926 47.9182 4.98298C46.9739 2.09474 44.2444 0 41.0316 0C37.0391 0 33.7904 3.23281 33.7904 7.20728C33.7904 11.1818 37.0384 14.4146 41.0316 14.4146C44.0819 14.4146 46.6959 12.5271 47.7605 9.86371C50.8334 10.6971 53.0998 13.4978 53.0998 16.8168V40.8401C53.0998 54.0872 42.2721 64.8634 28.9634 64.8634C15.6547 64.8634 4.827 54.0865 4.827 40.8401V16.8168C4.827 13.4978 7.09344 10.6971 10.1663 9.86371C11.2309 12.5264 13.8449 14.4146 16.8952 14.4146C20.8877 14.4146 24.1364 11.1818 24.1364 7.20728C24.1364 3.23281 20.8884 0 16.8952 0C13.6824 0 10.9529 2.09474 10.0086 4.98298C4.33234 5.95926 0 10.8918 0 16.8161V40.8394C0 53.3672 8.07149 64.0524 19.3094 68.0192V79.2773C19.3094 80.6037 20.3902 81.6795 21.7229 81.6795H26.5499V98.9767C26.5499 112.224 37.3776 123 50.6863 123C63.995 123 74.8227 112.224 74.8227 98.9767V28.8277C74.8227 20.8795 81.3195 14.4139 89.3044 14.4139C97.2894 14.4139 103.786 20.8802 103.786 28.8277V76.8744C103.786 78.2009 104.867 79.2766 106.2 79.2766C107.532 79.2766 108.613 78.2009 108.613 76.8744V28.8277C108.615 18.2308 99.9526 9.60948 89.3051 9.60948ZM41.0323 9.60948C39.7017 9.60948 38.6188 8.53164 38.6188 7.20728C38.6188 5.88292 39.7017 4.80509 41.0323 4.80509C42.3629 4.80509 43.4458 5.88292 43.4458 7.20728C43.4458 8.53164 42.3629 9.60948 41.0323 9.60948ZM16.8959 4.80439C18.2265 4.80439 19.3094 5.88223 19.3094 7.20659C19.3094 8.53094 18.2265 9.60877 16.8959 9.60877C15.5653 9.60877 14.4824 8.53094 14.4824 7.20659C14.4824 5.88223 15.5646 4.80439 16.8959 4.80439ZM24.1371 69.2651C27.3401 69.8016 30.5888 69.8016 33.7918 69.2651V76.8744H24.1371V69.2651Z" fill="#FDFEEC"/>
<path d="M119.085 86.5298C122.062 93.8625 118.546 102.218 111.249 105.198C103.951 108.178 95.617 104.662 92.6406 97.3294C89.6641 89.9968 93.1795 81.6417 100.477 78.6614C107.775 75.6812 116.109 79.1972 119.085 86.5298Z" stroke="#FDFEEC" stroke-width="5"/>
<path d="M112.481 89.362C113.94 92.9443 112.217 97.0262 108.64 98.4821C105.063 99.9379 100.978 98.2202 99.519 94.638C98.06 91.0557 99.7831 86.974 103.36 85.518C106.937 84.062 111.022 85.7797 112.481 89.362Z" stroke="#FDFEEC" stroke-width="3"/>
<path d="M107.852 91.2463C108.269 92.2698 107.776 93.4361 106.754 93.852C105.732 94.268 104.565 93.7772 104.148 92.7537C103.731 91.7302 104.224 90.564 105.246 90.148C106.268 89.732 107.435 90.2228 107.852 91.2463Z" fill="#FDFEEC"/>
<path d="M38.2618 30.962C35.9543 28.6474 32.2131 28.6474 29.9055 30.962L29.5254 31.3432L29.1454 30.962C26.8378 28.6474 23.0966 28.6474 20.789 30.962C18.4815 33.2766 18.4815 37.0291 20.789 39.3437C23.2587 41.8209 26.798 45.3709 29.5254 48.1066C32.2529 45.3709 35.7922 41.8202 38.2618 39.3437C40.5694 37.0291 40.5694 33.2766 38.2618 30.962Z" fill="#FDFEEC"/>
</svg>
