<svg width="141" height="140" viewBox="0 0 141 140" fill="none" xmlns="http://www.w3.org/2000/svg">
<path d="M16.6985 50.8986C8.53302 59.6862 8.53302 73.9849 16.6985 82.7736L42.243 110.264V124.717C42.243 133.144 48.6139 140 56.444 140C64.275 140 70.646 133.144 70.646 124.717V119.737C70.646 115.833 73.5975 112.656 77.2251 112.656C80.8526 112.656 83.8042 115.833 83.8042 119.737V124.717C83.8042 133.144 90.1751 140 98.0052 140C105.835 140 112.207 133.144 112.207 124.717V78.65C116.702 77.0874 120.133 72.8388 120.746 67.5647L121.673 59.5764C123.997 58.3508 126.184 56.8012 128.168 54.9493C133.655 49.8275 137.243 42.7461 138.27 35.0079L140.022 21.8064C140.111 21.1387 140.156 20.4569 140.156 19.7827C140.156 11.89 134.189 5.46981 126.856 5.46981H124.911V4.1029C124.911 1.83776 123.204 0.00107854 121.099 0.00107854C118.994 0.00107854 117.288 1.83776 117.288 4.1029V15.0403C117.288 17.3055 118.994 19.1422 121.099 19.1422C123.204 19.1422 124.911 17.3055 124.911 15.0403V13.6734H126.856C129.986 13.6734 132.534 16.4149 132.534 19.7837C132.534 20.0719 132.514 20.3623 132.476 20.6483L130.724 33.8498C129.147 45.7311 119.547 54.6905 108.396 54.6905C97.2433 54.6905 87.645 45.7311 86.0676 33.8498L84.3155 20.6494C84.2781 20.3644 84.2579 20.073 84.2579 19.7848C84.2579 16.416 86.8053 13.6745 89.9357 13.6745H91.8808V15.0414C91.8808 17.3066 93.5875 19.1432 95.6923 19.1432C97.797 19.1432 99.5037 17.3066 99.5037 15.0414V4.10182C99.5037 1.83669 97.797 0 95.6923 0C93.5875 0 91.8808 1.83669 91.8808 4.10182V5.46872H89.9357C82.6018 5.46872 76.636 11.89 76.636 19.7816C76.636 20.4569 76.6815 21.1376 76.7694 21.8064L78.5215 35.0068C79.5481 42.745 83.1363 49.8264 88.6231 54.9482C90.6076 56.8001 92.7932 58.3497 95.1173 59.5753L96.0449 67.5636C96.6572 72.8377 100.089 77.0863 104.583 78.6489V124.716C104.583 128.62 101.632 131.796 98.0042 131.796C94.3766 131.796 91.4251 128.62 91.4251 124.716V119.736C91.4251 111.308 85.0541 104.453 77.2231 104.453C69.393 104.453 63.0221 111.309 63.0221 119.736V124.716C63.0221 128.62 60.0705 131.796 56.443 131.796C52.8154 131.796 49.8639 128.62 49.8639 124.716V110.243L75.3901 82.7725C79.3461 78.5152 81.5246 72.8562 81.5246 66.835C81.5246 60.815 79.3461 55.1548 75.3901 50.8975C67.3145 42.2067 54.2301 42.111 46.0443 50.6094C37.8576 42.1121 24.7741 42.2067 16.6985 50.8986ZM103.608 66.5468L103.125 62.3907C104.854 62.7201 106.617 62.8909 108.394 62.8909C110.171 62.8909 111.933 62.7212 113.662 62.3907L113.179 66.5468C112.878 69.1382 110.821 71.0934 108.393 71.0934C105.968 71.0934 103.909 69.1382 103.608 66.5468ZM42.2329 78.476C42.2329 76.2142 43.9426 74.3742 46.0443 74.3742C48.1461 74.3742 49.8558 76.2142 49.8558 78.476C49.8558 80.7379 48.1461 82.5778 46.0443 82.5778C43.9426 82.5778 42.2329 80.7379 42.2329 78.476ZM22.0883 56.6979C27.2821 51.1085 35.7336 51.1085 40.9274 56.6979L43.3504 59.3056C44.0648 60.0744 45.0339 60.5072 46.0453 60.5072C47.0568 60.5072 48.0258 60.0755 48.7402 59.3056L51.1633 56.6979C53.7602 53.9032 57.1715 52.5058 60.5828 52.5058C63.9941 52.5058 67.4054 53.9032 70.0023 56.6979C72.5184 59.4056 73.9037 63.0061 73.9037 66.835C73.9037 70.6639 72.5184 74.2644 70.0023 76.9721L49.8669 98.6426V90.0725C54.2978 88.3771 57.4807 83.8197 57.4807 78.4771C57.4807 71.6926 52.3516 66.1728 46.0474 66.1728C39.7431 66.1728 34.614 71.6926 34.614 78.4771C34.614 83.8284 37.805 88.3891 42.246 90.0801V98.6632L22.0914 76.9732C16.8936 71.3827 16.8936 62.2873 22.0883 56.6979Z" fill="#FDFEEC"/>
</svg>
