<svg width="140" height="140" viewBox="0 0 140 140" fill="none" xmlns="http://www.w3.org/2000/svg">
<path d="M125.797 65.2603C125.464 65.2603 125.134 65.3263 124.827 65.4545C124.519 65.5828 124.239 65.7708 124.004 66.0077C123.768 66.2447 123.581 66.5261 123.454 66.8357C123.327 67.1453 123.261 67.4772 123.261 67.8123V78.0207C123.261 79.3613 122.999 80.6887 122.489 81.9272C121.979 83.1658 121.232 84.2911 120.29 85.2391C119.348 86.187 118.229 86.9389 116.998 87.452C115.767 87.965 114.448 88.229 113.116 88.229H26.8841C24.1935 88.229 21.6131 87.1535 19.7106 85.2391C17.808 83.3246 16.7392 80.7281 16.7392 78.0207V26.979C16.7392 24.2716 17.808 21.6751 19.7106 19.7606C21.6131 17.8462 24.1935 16.7707 26.8841 16.7707H113.116C115.807 16.7707 118.387 17.8462 120.29 19.7606C122.192 21.6751 123.261 24.2716 123.261 26.979C123.261 27.6559 123.528 28.305 124.004 28.7836C124.479 29.2622 125.125 29.5311 125.797 29.5311C126.47 29.5311 127.115 29.2622 127.591 28.7836C128.066 28.305 128.333 27.6559 128.333 26.979C128.333 22.9179 126.73 19.0231 123.876 16.1514C121.023 13.2798 117.152 11.6665 113.116 11.6665H26.8841C22.8482 11.6665 18.9776 13.2798 16.1238 16.1514C13.27 19.0231 11.6667 22.9179 11.6667 26.979V78.0207C11.6667 82.0818 13.27 85.9766 16.1238 88.8482C18.9776 91.7199 22.8482 93.3332 26.8841 93.3332H113.116C117.152 93.3332 121.023 91.7199 123.876 88.8482C126.73 85.9766 128.333 82.0818 128.333 78.0207V67.8123C128.333 67.4772 128.268 67.1453 128.14 66.8357C128.013 66.5261 127.826 66.2447 127.591 66.0077C127.355 65.7708 127.075 65.5828 126.768 65.4545C126.46 65.3263 126.13 65.2603 125.797 65.2603Z" fill="#FDFEEC"/>
<path d="M125.768 45.5582C125.09 45.5582 124.44 45.8224 123.961 46.2929C123.482 46.7633 123.213 47.4013 123.213 48.0665V58.0998C123.213 58.7651 123.482 59.4031 123.961 59.8735C124.44 60.3439 125.09 60.6082 125.768 60.6082C126.446 60.6082 127.096 60.3439 127.575 59.8735C128.054 59.4031 128.323 58.7651 128.323 58.0998V48.0665C128.323 47.7371 128.257 47.4109 128.129 47.1066C128 46.8023 127.812 46.5258 127.575 46.2929C127.338 46.0599 127.056 45.8752 126.746 45.7491C126.436 45.6231 126.104 45.5582 125.768 45.5582ZM123.954 36.2523C123.714 36.4854 123.524 36.7629 123.394 37.0685C123.265 37.3742 123.198 37.702 123.198 38.0332C123.198 38.3643 123.265 38.6922 123.394 38.9978C123.524 39.3035 123.714 39.5809 123.954 39.8141C124.191 40.0492 124.474 40.2358 124.785 40.3631C125.097 40.4905 125.431 40.5561 125.768 40.5561C126.105 40.5561 126.439 40.4905 126.751 40.3631C127.062 40.2358 127.345 40.0492 127.582 39.8141L127.889 39.4128C127.99 39.2847 128.068 39.1404 128.119 38.9863C128.211 38.8475 128.28 38.6951 128.323 38.5348C128.337 38.3679 128.337 38.2001 128.323 38.0332C128.326 37.535 128.178 37.0472 127.897 36.632C127.617 36.2168 127.217 35.8931 126.748 35.702C126.279 35.511 125.763 35.4613 125.265 35.5593C124.768 35.6573 124.311 35.8985 123.954 36.2523ZM115.547 123.317H23.5554C22.8777 123.317 22.2278 123.581 21.7486 124.051C21.2693 124.522 21.0001 125.16 21.0001 125.825C21.0001 126.49 21.2693 127.128 21.7486 127.598C22.2278 128.069 22.8777 128.333 23.5554 128.333H115.547C116.224 128.333 116.874 128.069 117.354 127.598C117.833 127.128 118.102 126.49 118.102 125.825C118.102 125.16 117.833 124.522 117.354 124.051C116.874 123.581 116.224 123.317 115.547 123.317ZM89.9936 110.775C90.6713 110.775 91.3213 110.511 91.8005 110.04C92.2797 109.57 92.5489 108.932 92.5489 108.267C92.5489 107.601 92.2797 106.963 91.8005 106.493C91.3213 106.022 90.6713 105.758 89.9936 105.758H49.1086C48.4309 105.758 47.7809 106.022 47.3017 106.493C46.8225 106.963 46.5533 107.601 46.5533 108.267C46.5533 108.932 46.8225 109.57 47.3017 110.04C47.7809 110.511 48.4309 110.775 49.1086 110.775H89.9936Z" fill="#FDFEEC"/>
<g clip-path="url(#clip0_541_100)">
<path d="M79.6333 83.0002H58.4644C58.1689 83.0002 57.883 82.8573 57.7114 82.6094C57.626 82.4893 57.571 82.3502 57.5511 82.2041C57.5311 82.0581 57.5469 81.9093 57.5971 81.7707C57.8449 81.0654 58.3119 79.4165 58.493 78.6826C59.9418 72.9066 58.9505 67.3213 55.5383 62.0696C53.1078 58.3143 48.3803 48.621 56.8632 39.5568C62.6486 33.371 70.2832 32.4465 75.6683 32.761C80.7199 33.0565 85.3235 34.9723 88.6308 38.1462C92.6721 42.0254 93.5871 46.4002 93.6443 49.393C93.6728 50.9466 93.3202 52.5383 92.5958 54.1491C92.186 55.0641 92.186 55.8933 92.5768 56.6177C92.7674 56.9608 92.9866 57.3421 93.2344 57.7615C94.8738 60.5923 95.9222 62.5366 95.5219 63.8043C95.398 64.2141 95.1121 64.5382 94.7308 64.7193C94.0922 65.0052 93.4155 65.2054 92.9199 65.3198C92.9103 65.8535 92.9103 66.6255 93.0057 67.3976C93.0628 68.0266 92.8246 68.589 92.3575 68.9416L92.0239 69.1608L92.1002 69.3324C92.2718 69.7137 92.2908 70.133 92.1478 70.5238C91.9668 71.048 91.5569 71.6009 90.9374 72.1823C90.8993 72.2871 90.8421 72.5444 90.9564 72.9066C91.0994 73.3832 91.4902 74.9844 90.7372 76.2616C90.3274 76.9574 89.6507 77.4149 88.7738 77.6055C87.4775 77.8819 86.3528 77.7866 84.9232 77.6723L84.1988 77.6151C83.198 77.5388 82.283 77.8819 81.6063 78.5873C80.8152 79.3974 80.4244 80.6269 80.5483 81.8565C80.5674 81.9994 80.5578 82.1519 80.5293 82.2854C80.4435 82.7048 80.0718 83.0002 79.6333 83.0002ZM59.7225 81.1512H78.6897C78.7374 79.6834 79.2997 78.3108 80.291 77.291C80.8108 76.7495 81.4453 76.3315 82.148 76.0676C82.8507 75.8037 83.6036 75.7006 84.3513 75.766L85.0947 75.8232C86.4196 75.928 87.3822 76.0138 88.4116 75.7946C88.8977 75.6898 89.0788 75.4705 89.1646 75.318C89.441 74.851 89.3838 74.0408 89.2027 73.4499C88.7833 72.1155 89.3743 71.2005 89.441 71.0957C89.4791 71.029 89.5363 70.9718 89.5935 70.9241C90.1177 70.4571 90.3083 70.1426 90.3846 69.9996L90.0319 69.199C89.9447 68.9995 89.9303 68.7756 89.9913 68.5666C90.0523 68.3576 90.1847 68.1766 90.3655 68.0552L91.1757 67.5215C90.9946 66.0155 91.1185 64.5477 91.128 64.481C91.1661 64.0616 91.4807 63.7185 91.9 63.6518C91.9096 63.6518 92.8913 63.4898 93.7777 63.1276C93.7205 62.2698 92.2813 59.7916 91.6522 58.6955C91.4044 58.2666 91.1757 57.8663 90.9755 57.5232C90.2893 56.2841 90.2797 54.8544 90.9183 53.4057C91.5283 52.0427 91.8333 50.7083 91.8047 49.4312C91.7571 46.791 90.9374 42.9213 87.3536 39.4901C84.3608 36.6116 80.1671 34.8865 75.5635 34.6101C70.5691 34.3241 63.516 35.1629 58.2166 40.8244C50.8966 48.6401 54.3755 56.8655 57.0919 61.0688C60.79 66.7685 61.8671 72.8494 60.2849 79.1401C60.18 79.5499 59.9513 80.3791 59.7225 81.1512Z" fill="#FDFEEC"/>
<path d="M73.4475 57.1036C72.2275 57.1036 71.0075 56.6366 70.0734 55.712C69.1808 54.816 68.6797 53.6027 68.6797 52.338C68.6797 51.0732 69.1808 49.86 70.0734 48.9639C70.9695 48.0713 72.1827 47.5701 73.4475 47.5701C74.7123 47.5701 75.9255 48.0713 76.8216 48.9639C77.7142 49.86 78.2153 51.0732 78.2153 52.338C78.2153 53.6027 77.7142 54.816 76.8216 55.712C75.8875 56.6366 74.6675 57.1036 73.4475 57.1036ZM73.4475 49.4119C72.6659 49.4119 71.932 49.7169 71.3792 50.2697C70.8343 50.8182 70.5285 51.56 70.5285 52.3332C70.5285 53.1064 70.8343 53.8482 71.3792 54.3967C71.9285 54.9438 72.6722 55.251 73.4475 55.251C74.2228 55.251 74.9665 54.9438 75.5158 54.3967C76.0607 53.8482 76.3665 53.1064 76.3665 52.3332C76.3665 51.56 76.0607 50.8182 75.5158 50.2697C74.963 49.7169 74.2291 49.4119 73.4475 49.4119ZM48.5614 40.3572C46.1119 40.3572 43.8053 39.4041 42.0706 37.6694C38.4869 34.0856 38.4869 28.262 42.0706 24.6878C45.6544 21.1041 51.478 21.1041 55.0522 24.6878C58.6359 28.2716 58.6359 34.0952 55.0522 37.6694C54.2022 38.525 53.1908 39.2032 52.0765 39.6646C50.9622 40.126 49.7674 40.3614 48.5614 40.3572ZM43.3764 25.9936C40.517 28.853 40.517 33.5042 43.3764 36.3636C44.0564 37.0455 44.8646 37.5861 45.7545 37.9541C46.6444 38.3222 47.5984 38.5105 48.5614 38.5081C50.5248 38.5081 52.3644 37.7456 53.7464 36.3636C56.6058 33.5042 56.6058 28.853 53.7464 25.9936C50.887 23.1342 46.2358 23.1342 43.3764 25.9936Z" fill="#FDFEEC"/>
<path d="M48.5614 36.8402C47.1126 36.8402 45.6639 36.2874 44.5582 35.1818C44.0308 34.6574 43.6126 34.0335 43.328 33.3464C43.0433 32.6592 42.8978 31.9224 42.8998 31.1787C42.8978 30.4349 43.0433 29.6981 43.328 29.011C43.6126 28.3238 44.0308 27.7 44.5582 27.1755C45.0827 26.6481 45.7065 26.23 46.3937 25.9453C47.0808 25.6606 47.8176 25.5151 48.5614 25.5171C49.3051 25.5151 50.0419 25.6606 50.7291 25.9453C51.4162 26.23 52.0401 26.6481 52.5645 27.1755C53.0919 27.7 53.5101 28.3238 53.7948 29.011C54.0794 29.6981 54.225 30.4349 54.2229 31.1787C54.225 31.9224 54.0794 32.6592 53.7948 33.3464C53.5101 34.0335 53.0919 34.6574 52.5645 35.1818C52.0399 35.7091 51.4161 36.1271 50.729 36.4118C50.0418 36.6964 49.3051 36.8421 48.5614 36.8402ZM48.5614 27.3662C47.5415 27.3662 46.5884 27.7665 45.864 28.4813C45.1492 29.1962 44.7489 30.1588 44.7489 31.1787C44.7489 32.1985 45.1492 33.1516 45.864 33.876C46.5801 34.5901 47.5501 34.991 48.5614 34.991C49.5726 34.991 50.5426 34.5901 51.2587 33.876C51.9831 33.1516 52.3739 32.1985 52.3739 31.1787C52.3739 30.1588 51.9736 29.2057 51.2587 28.4813C50.9061 28.125 50.4859 27.8429 50.0227 27.6513C49.5594 27.4598 49.0626 27.3629 48.5614 27.3662ZM75.1059 64.4999H71.7795C71.3029 64.4999 70.9026 64.1282 70.855 63.6516L70.6548 61.326C70.0978 61.1556 69.5584 60.9322 69.044 60.6588L67.2617 62.1648C67.0842 62.3132 66.8574 62.3897 66.6263 62.3791C66.3951 62.3685 66.1763 62.2716 66.0131 62.1076L63.6589 59.7534C63.4948 59.5902 63.3979 59.3714 63.3873 59.1402C63.3767 58.909 63.4532 58.6823 63.6017 58.5048L65.1076 56.7224C64.8342 56.2081 64.6108 55.6687 64.4404 55.1116L62.1148 54.9115C61.883 54.8923 61.667 54.7865 61.5098 54.6152C61.3526 54.4438 61.2657 54.2195 61.2665 53.987V50.6605C61.2665 50.184 61.6382 49.7837 62.1148 49.736L64.4404 49.5359C64.612 48.983 64.8312 48.4398 65.1076 47.9251L63.6017 46.1332C63.4532 45.9557 63.3767 45.729 63.3873 45.4978C63.3979 45.2666 63.4948 45.0478 63.6589 44.8846L66.0131 42.5304C66.1763 42.3663 66.3951 42.2694 66.6263 42.2588C66.8574 42.2483 67.0842 42.3247 67.2617 42.4732L69.044 43.9791C69.5584 43.7058 70.0978 43.4824 70.6548 43.312L70.855 40.9863C70.8931 40.5098 71.2934 40.1381 71.7795 40.1381H75.1059C75.5825 40.1381 75.9828 40.5098 76.0304 40.9863L76.2306 43.312C76.7834 43.4835 77.3267 43.7027 77.8414 43.9791L79.6237 42.4732C79.8012 42.3247 80.028 42.2483 80.2591 42.2588C80.4903 42.2694 80.7091 42.3663 80.8723 42.5304L83.2265 44.8846C83.5696 45.2277 83.5887 45.771 83.2837 46.1332L81.7778 47.9251C82.0542 48.4398 82.2734 48.983 82.445 49.5359L84.7706 49.736C85.2471 49.7741 85.6189 50.1745 85.6189 50.6605V53.987C85.6189 54.4635 85.2471 54.8638 84.7706 54.9115L82.445 55.1116C82.2746 55.6687 82.0511 56.2081 81.7778 56.7224L83.2837 58.5048C83.5887 58.8765 83.5696 59.4102 83.2265 59.7534L80.8723 62.1076C80.7091 62.2716 80.4903 62.3685 80.2591 62.3791C80.028 62.3897 79.8012 62.3132 79.6237 62.1648L77.8414 60.6588C77.3267 60.9352 76.7834 61.1545 76.2306 61.326L76.0304 63.6516C75.9828 64.1282 75.5825 64.4999 75.1059 64.4999ZM72.6278 62.6509H74.2576L74.4387 60.5254C74.4768 60.1251 74.7628 59.7915 75.1536 59.7057C75.9637 59.5151 76.7357 59.2006 77.4506 58.7526C77.7937 58.5334 78.2321 58.5715 78.5371 58.8288L80.167 60.2109L81.3203 59.0576L79.9478 57.4277C79.8227 57.2775 79.7481 57.0917 79.7344 56.8968C79.7207 56.7018 79.7687 56.5074 79.8715 56.3412C80.3195 55.6263 80.634 54.8543 80.8246 54.0441C80.9104 53.6534 81.244 53.3674 81.6443 53.3293L83.7698 53.1482V51.5184L81.6443 51.3373C81.4496 51.3203 81.2653 51.2419 81.118 51.1135C80.9706 50.985 80.8679 50.813 80.8246 50.6224C80.634 49.8123 80.3195 49.0402 79.8715 48.3254C79.7687 48.1592 79.7207 47.9648 79.7344 47.7698C79.7481 47.5748 79.8227 47.3891 79.9478 47.2388L81.3203 45.609L80.167 44.4557L78.5371 45.8282C78.2321 46.0855 77.7937 46.1141 77.4506 45.9045C76.7357 45.4565 75.9637 45.142 75.1536 44.9513C74.9629 44.908 74.791 44.8053 74.6625 44.658C74.534 44.5107 74.4557 44.3264 74.4387 44.1316L74.2576 42.0062H72.6278L72.4467 44.1316C72.4086 44.532 72.1226 44.8655 71.7318 44.9513C70.9217 45.142 70.1496 45.4565 69.4348 45.9045C69.0917 46.1237 68.6532 46.0855 68.3482 45.8282L66.7184 44.4557L65.5651 45.609L66.9376 47.2388C67.195 47.5438 67.2236 47.9823 67.0139 48.3254C66.5659 49.0402 66.2514 49.8123 66.0607 50.6224C65.975 51.0132 65.6414 51.2991 65.2411 51.3373L63.1156 51.5184V53.1482L65.2411 53.3293C65.6414 53.3674 65.975 53.6534 66.0607 54.0441C66.2514 54.8543 66.5659 55.6263 67.0139 56.3412C67.2236 56.6843 67.195 57.1227 66.9376 57.4277L65.5651 59.0576L66.7184 60.2109L68.3482 58.8288C68.6532 58.5715 69.0917 58.5334 69.4348 58.7526C70.1496 59.2006 70.9121 59.5151 71.7318 59.7057C72.1226 59.7915 72.4086 60.1251 72.4467 60.5254L72.6278 62.6509Z" fill="#FDFEEC"/>
<path d="M76.1639 50.5367C75.9065 50.5367 75.6587 50.4319 75.4776 50.2317L53.7178 25.9556C53.5549 25.773 53.4705 25.5335 53.483 25.2891C53.4955 25.0446 53.6038 24.815 53.7845 24.6499C53.8751 24.5689 53.9808 24.5065 54.0956 24.4665C54.2103 24.4265 54.3319 24.4095 54.4532 24.4166C54.5746 24.4237 54.6933 24.4547 54.8026 24.5078C54.9119 24.5609 55.0097 24.6351 55.0903 24.7261L76.8501 49.0022C77.1932 49.3835 77.1551 49.9649 76.7834 50.308C76.6023 50.4605 76.3831 50.5367 76.1639 50.5367ZM70.731 55.9791C70.5557 55.9789 70.3839 55.9293 70.2354 55.8361L45.1396 39.6711C44.9424 39.5346 44.806 39.3267 44.7592 39.0915C44.7124 38.8562 44.7589 38.612 44.8888 38.4104C45.0186 38.2087 45.2218 38.0655 45.4554 38.0108C45.6889 37.9562 45.9346 37.9944 46.1404 38.1175L71.2267 54.273C71.6556 54.5494 71.7795 55.1213 71.5031 55.5502C71.4217 55.6816 71.308 55.7901 71.1729 55.8651C71.0378 55.9402 70.8856 55.9794 70.731 55.9791Z" fill="#FDFEEC"/>
</g>
<defs>
<clipPath id="clip0_541_100">
<rect width="61" height="61" fill="white" transform="translate(37 22)"/>
</clipPath>
</defs>
</svg>
