<svg width="140" height="140" viewBox="0 0 140 140" fill="none" xmlns="http://www.w3.org/2000/svg">
<path d="M99.6155 0H133.742L134.979 0.21875L136.071 0.65625L136.944 1.16667L137.672 1.75L138.399 2.47917L139.054 3.42708L139.563 4.44792L139.855 5.39583L140 6.48958V30.5521L139.709 31.5L139.054 32.2292L138.326 32.5938L138.035 32.6667H137.308L136.507 32.375L135.852 31.8646L135.489 31.2083L135.343 30.6979L135.27 6.92708L135.125 6.125L134.688 5.46875L134.179 5.03125L133.67 4.8125L133.233 4.73958H100.052L99.2516 5.03125L98.7423 5.39583L98.3057 6.125L98.1601 6.63542V53.9583L98.3784 54.6875L98.6695 55.125L99.2516 55.6354L99.8337 55.8542L100.561 55.9271H132.36L133.524 55.8542L134.252 55.5625L134.834 55.0521L135.198 54.25L135.27 53.5208L135.343 39.3021L135.561 38.5729L135.998 37.9896L136.58 37.5521L137.162 37.3333H138.108L138.909 37.625L139.418 38.0625L139.855 38.7917L140 39.3021V54.1042L139.855 55.125L139.491 56.3646L138.836 57.6042L138.035 58.5521L137.235 59.2813L136.289 59.8646L135.125 60.375L134.106 60.5938L133.378 60.6667H100.125L98.9606 60.5208L97.8691 60.2292L96.6321 59.5729L95.7589 58.9167L94.9585 58.1146L94.4491 57.3854L93.867 56.2188L93.576 55.2708L93.4304 54.3229V6.27083L93.7215 4.8125L94.2308 3.64583L94.7402 2.84375L95.3951 2.11458L96.05 1.45833L97.0687 0.802083L98.1601 0.291667L99.0333 0.0729167L99.6155 0Z" fill="#FDFEEC"/>
<path d="M116.133 128.333H117.152L117.952 128.625L118.462 129.063L118.898 129.792L119.044 130.302V137.886L118.753 138.833L118.098 139.563L117.37 139.927L116.934 140H93.2121L92.5572 139.854L91.9751 139.49L91.6113 139.198L91.1747 138.323L91.1019 138.031V137.229L91.393 136.427L91.9751 135.771L92.63 135.406L92.9211 135.333L112.931 135.261H114.387V130.302L114.605 129.573L115.042 128.99L115.624 128.552L116.133 128.333Z" fill="#FDFEEC"/>
<path d="M125.52 16.333H126.466L127.266 16.6247L127.776 17.0622L128.212 17.7913L128.358 18.3747V37.5518L128.067 38.4997L127.557 39.083L126.902 39.5205L126.32 39.6663H125.665L124.865 39.3747L124.21 38.8643L123.919 38.4268L123.701 37.6976V18.3018L123.919 17.5726L124.356 16.9893L124.938 16.5518L125.52 16.333Z" fill="#FDFEEC"/>
<path fill-rule="evenodd" clip-rule="evenodd" d="M8.29522 97.7812H6.2578L5.53015 97.9271L4.29314 98.3646L3.1289 99.0208L2.25572 99.75L1.38254 100.771L0.873181 101.573L0.29106 102.958L0.0727651 104.052L0 105.365L0.14553 106.531L0.43659 107.552L0.945946 108.646L1.6736 109.74L10.5509 118.635L11.2058 119.073L11.9335 119.292L12.8067 119.219L13.316 119L14.1164 118.417L15.6445 116.885V116.74H15.79L16.9543 115.573L17.4636 114.99L17.973 114.552V114.406H18.1185L18.264 114.115H18.4096L18.7006 113.823L18.8462 113.531H18.9917L19.2827 113.24L19.4283 112.948H19.5738V112.802H19.7193V112.656H19.8649L21.2474 111.271L22.3389 110.104L22.921 109.375L23.5759 108.208L23.9397 107.042L24.158 105.656V105L24.0852 104.271L23.9397 103.542L23.6486 102.594L23.0665 101.427L22.4116 100.479L21.8295 99.8958L21.0291 99.2396L20.0104 98.6562L18.8462 98.2188L17.8274 98H15.8628L15.4262 98.0729L14.4075 98.3646L13.1705 98.9479L12.4428 99.4583L12.079 99.5312L11.5696 99.0938L10.4782 98.4375L9.31393 98L8.29522 97.7812ZM7.8586 102.667H7.13095L6.62159 102.813L6.03947 103.104L5.53012 103.615L5.16629 104.198L4.948 104.927V105.656L5.23906 106.531L5.60288 107.042L12.1517 113.604L12.37 113.531L12.5156 113.24H12.6611L17.6819 108.208L17.8274 107.917H17.9729L18.1185 107.625H18.264L18.4823 107.333L19.1372 106.604L19.4282 105.875V104.708L19.1372 103.979L18.6278 103.323L17.8274 102.813L17.1725 102.667H16.5176L15.7172 102.885L14.9168 103.469L13.6798 104.708L13.1705 105L12.5156 105.219H11.8607L11.3513 105.073L10.6237 104.635L9.24114 103.25L8.51349 102.813L7.8586 102.667Z" fill="#FDFEEC"/>
<path d="M116.206 23.3335H117.152L117.807 23.5522L118.462 24.0627L118.898 24.7918L119.044 25.3752V37.5522L118.753 38.5002L118.243 39.0835L117.588 39.521L117.006 39.6668H116.351L115.551 39.3752L114.896 38.8647L114.605 38.4272L114.387 37.6981V25.3022L114.605 24.5731L115.042 23.9897L115.624 23.5522L116.206 23.3335Z" fill="#FDFEEC"/>
<path d="M109.22 119H121.736L122.609 119.292L123.191 119.802L123.628 120.677L123.701 120.969V121.698L123.41 122.5L122.755 123.229L122.027 123.594L121.59 123.667H109.511L108.857 123.521L108.274 123.156L107.911 122.792L107.547 122.208L107.401 121.698V120.896L107.692 120.094L108.274 119.438L108.929 119.073L109.22 119Z" fill="#FDFEEC"/>
<path fill-rule="evenodd" clip-rule="evenodd" d="M121.736 100.333H102.235L101.944 100.406L101.289 100.771L100.707 101.427L100.416 102.229V112.365L100.634 113.094L101.143 113.75L101.871 114.188L102.526 114.333H121.59L122.027 114.261L122.755 113.896L123.41 113.167L123.701 112.219V102.375L123.555 101.792L123.118 101.063L122.464 100.552L121.736 100.333ZM118.971 105H105.146L105.073 105.073V109.594L105.146 109.667H117.661L119.044 109.594V105.073L118.971 105Z" fill="#FDFEEC"/>
<path fill-rule="evenodd" clip-rule="evenodd" d="M21.6113 0H2.11026L1.52814 0.21875L0.946023 0.65625L0.509433 1.23958L0.291138 1.89583V12.0312L0.509433 12.7604L1.01879 13.4167L1.74644 13.8542L2.40132 14L9.5323 14.0729L9.60507 23.6979L9.82336 24.4271L10.3327 25.0833L11.0604 25.5208L11.7153 25.6667H26.1227L26.5593 25.5938L27.0687 25.375L27.7236 24.7917L28.0146 24.3542L28.2329 23.625V22.9688L28.1602 22.6771L27.7236 21.8021L27.1415 21.2917L26.341 21L14.3348 20.9271V14.0729L21.4658 14L22.1207 13.8542L22.7755 13.4167L23.2849 12.8333L23.576 11.8854V2.04167L23.4304 1.45833L22.9938 0.729167L22.339 0.21875L21.6113 0ZM18.8461 4.66651H5.02076L4.948 4.73943V9.26026L5.02076 9.33318H17.5364L18.9189 9.26026V4.73943L18.8461 4.66651Z" fill="#FDFEEC"/>
<path d="M111.549 46.6665H121.809L122.609 46.9582L123.191 47.4686L123.628 48.3436L123.701 48.6353V49.3644L123.41 50.1665L122.9 50.7498L122.245 51.1873L121.663 51.3332H111.767L111.04 51.1144L110.603 50.8228L110.239 50.4582L109.875 49.8748L109.73 49.3644V48.6353L109.948 47.9061L110.385 47.3228L110.967 46.8853L111.549 46.6665Z" fill="#FDFEEC"/>
<path d="M106.892 28H107.838L108.638 28.2917L109.22 28.8021L109.657 29.6771L109.73 30.0417V37.5521L109.439 38.5L108.929 39.0833L108.274 39.5208L107.692 39.6667H107.037L106.237 39.375L105.582 38.8646L105.218 38.2083L105.073 37.6979V29.8958L105.364 29.0938L105.946 28.4375L106.601 28.0729L106.892 28Z" fill="#FDFEEC"/>
<path fill-rule="evenodd" clip-rule="evenodd" d="M66.3617 0H32.3804L31.7983 0.21875L31.1434 0.729167L30.8523 1.16667L30.5613 1.89583V12.5417L30.8523 14.4375L31.4345 16.1875L32.3076 17.8646L33.2536 19.1771L34.054 19.9792L33.9085 20.3438L33.4719 21L33.1081 21.8021L32.8898 22.8229V28.5833L33.1081 29.5313L33.5446 30.4792L34.1995 31.2813L34.9999 31.9375L35.8731 32.375L36.9646 32.6667L39.1476 32.7396L39.3659 33.1771L39.8752 34.0521L40.6756 35.2917L41.5488 36.3854L42.0582 36.9688H42.2037V37.1146L42.4948 37.2604V37.4063L42.6403 37.4792L43.5862 38.3542L44.3866 38.9375L44.4594 39.1563L44.5322 42.875L44.8232 44.4792L45.1871 45.5729L45.9147 46.9583L46.4241 47.6875L47.079 48.4896L47.6611 49L48.4615 49.6563L49.3347 50.1667L50.4989 50.75L51.7359 51.1146L53.264 51.3333H54.501L55.9563 51.1146L56.9022 50.8229L57.9937 50.3854L59.0852 49.7292L59.9584 49.0729L60.7588 48.2708L61.4137 47.4688L62.1413 46.3021L62.5779 45.2813L63.0145 43.75L63.2328 42.0729H75.239L76.0395 42.1458L76.9126 42.3646L77.7858 42.7292L78.8045 43.3125L79.5322 43.8958L80.1871 44.625L80.6964 45.3542L81.2785 46.5208L81.5696 47.5417L81.7151 48.9271L81.7879 58.6979L81.9334 59.2083L82.2972 59.8646L82.9521 60.375L83.7525 60.6667H84.4802L84.7713 60.5938L85.4989 60.2292L86.1538 59.5L86.4449 58.5521V48.4167L86.3721 47.5417L86.1538 46.3021L85.7172 44.8438L84.9168 43.1667L84.2619 42.1458L83.5343 41.1979L82.9521 40.6146L81.8607 39.6667L80.5509 38.7917L79.0228 38.0625L77.3492 37.5521L75.8212 37.3333L65.343 37.2604L65.4157 37.1146L65.9979 36.5313L66.9438 35.3646L67.6715 34.2708L68.5446 32.7396L70.5093 32.6667L71.0914 32.5938L72.0374 32.3021L72.765 31.8646L73.4927 31.2813L74.2203 30.3333L74.5841 29.4583L74.8024 28.3646V22.8958L74.5841 21.875L74.2203 21L73.6382 20.1979V19.8333H73.7837L74.002 19.6146L74.6569 18.8125L75.239 18.0104L75.8212 16.9896L76.4033 15.6771L76.8399 14.2188L77.0582 12.6875V10.5L76.9854 9.91667L76.6943 8.53125L76.185 7.07292L75.3118 5.39583L74.3659 4.08333L73.6382 3.35417L72.765 2.55208L71.6735 1.75L70.5821 1.16667L69.4178 0.65625L67.9625 0.21875L66.3617 0ZM65.707 4.66651H35.2911L35.2184 4.73943V12.2498L35.3639 13.1978L35.655 14.1457L35.946 14.729L36.5282 15.7498L37.3286 16.6978H37.5469L37.6196 11.229L37.9107 10.4269L38.42 9.84359L39.2932 9.40609H54.2101L54.7194 9.55193L55.3743 9.91651L55.8109 10.4998L56.102 11.3019V11.9582L56.0292 12.3228L55.8109 12.8332L55.4471 13.2707L54.865 13.7082L54.1373 13.9269L42.2766 13.9998L42.2038 14.0728V18.5936L42.2766 18.6665H64.3972L65.4887 18.5936V14.0728L65.4159 13.9998L62.8691 13.9269L62.1415 13.7082L61.4866 13.2707L61.1955 12.8332L60.9045 12.0311V11.229L60.9772 10.9373L61.341 10.2082L61.9232 9.69776L62.6508 9.40609H68.2537L68.9086 9.62484L69.4907 10.0623L69.9273 10.7915L70.0729 11.4478L70.1456 16.6978L70.2911 16.7707L70.946 15.9686L71.6737 14.8748L72.1103 13.7811L72.4013 12.4686V10.9373L72.3286 10.4269L72.0375 9.33318L71.6009 8.31234L70.8733 7.21859L70.0001 6.34359L69.1269 5.68734L67.9627 5.10401L66.944 4.81234L65.707 4.66651ZM53.7734 27.5626L54.1372 27.9272L55.3014 29.6772L55.8836 30.4063L56.3929 30.9167L57.4116 31.6459L58.6486 32.2292L59.8129 32.5209L60.4678 32.5938L63.0873 32.6667L62.9418 32.9584L61.9231 34.0522L61.0499 34.8542L59.7401 35.7292L58.5759 36.3126L57.4116 36.7501L56.3929 37.0417L55.0832 37.2605H52.5364L50.9355 36.9688L49.4075 36.4584L48.1705 35.8751L47.1518 35.2188L46.133 34.4167L44.605 32.8855V32.6667L47.079 32.5938L48.1705 32.448L49.3347 32.0834L50.5717 31.4272L51.2994 30.8438L52.027 30.1147L52.973 28.8022L53.7734 27.5626ZM51.0084 23.3333H37.6196L37.5469 23.4062V27.9271L37.6196 28H46.2787L47.2974 27.9271L47.8795 27.7083L48.4616 27.2708L49.0438 26.4688L50.1352 24.7917L50.8629 23.625L51.0084 23.3333ZM56.6841 23.3333H70.0729L70.1456 23.4062V27.9271L68.9814 28H61.05L60.1768 27.8542L59.5947 27.5625L58.9398 26.8333L56.7568 23.5521L56.6841 23.3333ZM49.6986 41.4166L49.1892 41.3437V42.4374L49.262 42.9478L49.4803 43.7499L49.7713 44.3333L50.4262 45.2083L51.0083 45.7187L51.736 46.1562L52.6092 46.5208L53.7734 46.6666L54.7194 46.5937L55.6653 46.302L56.684 45.7187L57.4844 44.9166L57.9938 44.1145L58.3576 43.2395L58.5031 42.1458V41.3437L57.921 41.4166L56.1019 41.7812L54.5738 41.927H53.1185L51.5177 41.7812L49.6986 41.4166Z" fill="#FDFEEC"/>
<path d="M99.9064 74.6665H100.852L101.653 74.9582L102.235 75.4686L102.671 76.3436L102.744 76.6353V77.3644L102.453 78.1665L101.944 78.7498L101.289 79.1873L100.707 79.3332H100.052L99.2515 79.0415L98.7422 78.6769V78.5311H98.5966L98.16 77.6561L98.0873 77.3644V76.6353L98.3056 75.9061L98.7422 75.3228L99.3243 74.8853L99.9064 74.6665Z" fill="#FDFEEC"/>
<path d="M104.563 9.3335H105.509L106.31 9.62516L106.892 10.1356L107.328 11.0106L107.401 11.3022V12.0314L107.11 12.8335L106.601 13.4168L105.946 13.8543L105.364 14.0002H104.709L103.909 13.7085L103.399 13.3439L102.963 12.6877L102.744 12.0314V11.3022L102.963 10.5731L103.399 9.98975L103.981 9.55225L104.563 9.3335Z" fill="#FDFEEC"/>
<path d="M118.534 74.6665H119.48L120.281 74.9582L120.863 75.4686L121.299 76.3436L121.372 76.6353V77.3644L121.081 78.1665L120.426 78.8957L119.699 79.2603L119.335 79.3332H118.68L117.879 79.0415L117.37 78.6769L116.934 78.0207L116.715 77.3644V76.6353L116.934 75.9061L117.37 75.3228L117.952 74.8853L118.534 74.6665Z" fill="#FDFEEC"/>
<path d="M109.22 74.6665H110.166L110.967 74.9582L111.549 75.4686L111.985 76.3436L112.058 76.6353V77.3644L111.767 78.1665L111.258 78.7498L110.603 79.1873L110.021 79.3332H109.366L108.565 79.0415L108.056 78.6769L107.62 78.0207L107.401 77.3644V76.6353L107.62 75.9061L108.056 75.3228L108.638 74.8853L109.22 74.6665Z" fill="#FDFEEC"/>
<path d="M118.534 65.3335H119.48L120.208 65.6252L120.79 66.0627L121.227 66.7918L121.372 67.3022V68.0314L121.081 68.8335L120.426 69.5627L119.699 69.9272L119.335 70.0002H118.68L118.025 69.7814L117.588 69.4897L117.225 69.1252L116.861 68.5418L116.715 68.0314V67.3022L116.934 66.5731L117.37 65.9897L117.952 65.5522L118.534 65.3335Z" fill="#FDFEEC"/>
<path d="M113.877 9.3335H114.823L115.551 9.62516L116.133 10.0627L116.57 10.7918L116.715 11.3022V12.0314L116.424 12.8335L115.769 13.5627L115.042 13.9272L114.678 14.0002H114.023L113.222 13.7085L112.713 13.3439L112.277 12.6877L112.058 12.0314V11.3022L112.277 10.5731L112.713 9.98975L113.295 9.55225L113.877 9.3335Z" fill="#FDFEEC"/>
<path fill-rule="evenodd" clip-rule="evenodd" d="M35.6549 37.3335H31.7983L30.7069 37.4793L29.2516 37.8439L27.7962 38.4272L26.5592 39.1564L25.5405 39.8856L24.8129 40.5418L23.9397 41.4897L23.0665 42.6564L22.4844 43.6772L21.9023 44.9897L21.4657 46.521L21.2474 48.1981V67.5939H16.8815L11.4241 67.6668L11.133 67.7397L10.4782 68.1043L9.89604 68.7606L9.60498 69.5627V91.3647L9.82328 92.0939L10.1143 92.5314L10.7692 93.0418L11.5696 93.3335H12.2973L12.8066 93.1877L13.4615 92.7502L13.9709 92.1668L14.2619 91.2189L14.3347 72.4064H21.1746L21.2474 83.5627L21.3202 84.146L21.6112 85.3856L22.0478 86.4793L22.7027 87.5731L23.4303 88.4481L24.158 89.1043L25.0312 89.7606L25.9771 90.271L27.3597 90.7814L28.7422 91.0002H29.9792L30.9979 90.8543L32.0166 90.5627L32.8898 90.1981V123.594H31.3617L27.4324 123.667L26.8503 123.74L25.9771 123.958L24.8856 124.469L23.8669 125.125L23.2848 125.708L22.4844 126.583L21.9023 127.604L21.4657 128.698L21.2474 130.011V138.031L21.4657 138.761L21.975 139.417L22.7027 139.854L23.3576 140H49.4075L49.8441 139.927L50.3534 139.708L50.8628 139.271L51.2994 138.688L51.5177 137.813L51.5904 93.4064H56.1019L56.1746 138.031L56.3202 138.615L56.684 139.198L57.0478 139.49L57.6299 139.854L58.2848 140H84.3347L84.7713 139.927L85.2807 139.708L85.9355 139.125L86.2266 138.688L86.4449 137.813V130.229L86.2994 129.063L86.0083 128.115L85.499 127.094L84.8441 126.146L84.1164 125.417L83.3888 124.833L82.5156 124.323L81.4241 123.886L80.2599 123.667L74.8753 123.594L74.8025 95.3022L74.7297 95.0106L74.2931 94.1356L73.711 93.6252L72.9106 93.3335H71.9646L71.3825 93.5522L70.8004 93.9897L70.3638 94.5731L70.1455 95.3022V116.594H60.9044L60.8316 90.7085L60.7588 90.3439L60.3222 89.4689L59.7401 88.9585L58.9397 88.6668H48.6798L48.0977 88.8856L47.5156 89.3231L47.079 89.9064L46.8607 90.6356V116.594H37.6195V79.4064H70.0728L70.1455 83.4897L70.2911 84.5835L70.6549 85.8231L71.1642 86.8439L71.8191 87.8647L72.4012 88.521L73.1289 89.1772L73.9293 89.7606L75.0208 90.3439L76.2578 90.7814L77.7131 91.0002H78.9501L79.605 90.9272L80.6237 90.7085L81.7879 90.271L82.9522 89.6147L83.8981 88.8856L84.6985 88.0106L85.2807 87.2085L85.8628 86.1147L86.2994 84.8752L86.4449 84.0002H87.1725L87.973 83.8543L88.9189 83.5627L89.7193 83.1981L90.6653 82.6147L91.4657 81.8856L92.2661 80.9377L92.8482 79.8439L93.2121 78.8231L93.4303 77.5835V76.4168L93.2848 75.4689L92.921 74.3022L92.5572 73.5731L91.9023 72.5522L91.3202 71.9689L90.5925 71.3127L89.7921 70.8022L88.6279 70.2918L87.7547 70.0731L86.5177 69.9272L86.4449 67.4481L86.2266 66.7189L85.8628 66.0627L85.3534 65.6252L84.553 65.3335H83.6071L83.0249 65.5522L82.4428 65.9897L82.0062 66.5731L81.7879 67.3022V74.5939H74.8753L74.8025 53.3752L74.7297 53.0106L74.2931 52.1356L73.711 51.6252L72.9106 51.3335H71.9646L71.3825 51.5522L70.8004 51.9897L70.3638 52.5731L70.1455 53.3022V58.2606H65.1975L65.052 58.1877L64.6154 57.3127L63.9605 56.2918L63.1601 55.4897L62.3597 54.8335L61.5592 54.396L60.6861 54.0314L59.5218 53.7397H57.4116L56.7567 53.8856L55.5197 54.3231L54.6466 54.8335L53.6278 55.6356L53.1185 56.2189L52.5364 57.021L51.9543 58.1877L51.0083 58.2606H37.6195L37.5468 53.3752L37.474 53.0106L37.0374 52.1356L36.4553 51.6252L35.6549 51.3335H34.7089L34.1268 51.5522L33.5447 51.9897L33.1081 52.5731L32.8898 53.3022V67.5939H25.9771V48.4168L26.0499 47.7606L26.3409 46.6668L26.8503 45.5002L27.578 44.4793L28.2328 43.8231L28.9605 43.2397L29.9792 42.6564L31.289 42.2189L32.3077 42.0731L35.4366 42.0002L35.8732 41.9272L36.3825 41.7085L37.0374 41.1252L37.3285 40.6877L37.5468 39.9585V39.3022L37.474 39.0106L37.1102 38.2085L36.4553 37.6252L35.6549 37.3335ZM51.8816 62.9998H37.5469V67.5936L37.6196 67.6665H43.077L44.1685 67.5936L47.6612 65.8436L48.5344 65.479H49.4803L49.9897 65.6248L50.6446 66.0623L51.0812 66.7186L51.2995 67.4478V68.0311L51.2267 68.3957L50.8629 69.1248L50.208 69.7082L45.6966 71.9686L44.7506 72.2603L37.5469 72.3332V74.5936L37.6196 74.6665H69.6363L70.1456 74.5936V63.0728L70.0729 62.9998H65.1248L65.0521 63.0728L64.5427 64.0207L63.8151 65.1144L63.2329 65.6978L62.287 66.4269L61.3411 66.9373L60.3223 67.3019L59.2309 67.5207H57.7756L56.6113 67.3019L55.5926 66.9373L54.5739 66.354L53.628 65.6248L53.2641 65.1873L52.6092 64.3123L52.0999 63.2915L51.8816 62.9998ZM37.6196 121.333H46.788L46.8608 121.406V135.26L44.8233 135.333H25.9772L25.9044 135.26V130.229L26.1955 129.5L26.6321 128.917L27.3597 128.479L27.8691 128.333L35.3639 128.26L36.0915 128.114L36.7464 127.677L37.183 127.167L37.4741 126.219L37.5468 121.406L37.6196 121.333ZM70.0728 121.333H60.9044L60.8317 121.406V135.26L60.9044 135.333H80.3327L81.788 135.26V130.594L81.7152 130.01L81.4969 129.5L80.9148 128.844L80.3327 128.479L79.6778 128.333L72.2558 128.26L71.6009 128.114L70.8732 127.677L70.4367 127.094L70.2184 126.364L70.1456 121.406L70.0728 121.333ZM25.9772 72.3333H32.8171L32.8899 72.4062V82.3958L32.8171 83.5624L32.526 84.3645L32.0895 85.0208L31.7256 85.4583L30.9252 85.9687L30.052 86.2603H28.6695L27.7963 85.9687L26.9959 85.3853L26.4865 84.802L26.1227 84.0728L25.9772 83.6353L25.9044 83.1249V72.4062L25.9772 72.3333ZM81.7152 79.3334H74.8753L74.8025 79.4063V83.198L74.948 83.9272L75.3846 84.8022L75.9667 85.4584L76.6944 85.9688L77.5676 86.2605H78.9501L79.3139 86.1876L80.3326 85.6772L80.9148 85.1667L81.4241 84.3647L81.7152 83.5626L81.7879 82.6147V79.4063L81.7152 79.3334ZM58.1393 58.3333H58.7942L59.5219 58.5521L59.9585 58.8438L60.3223 59.2083L60.6861 59.7917L60.8316 60.375V60.9583L60.6134 61.6875L60.1768 62.2708L59.7402 62.6354L59.0853 62.9271H57.8483L57.1206 62.5625L56.7568 62.2708L56.3202 61.5417L56.1747 61.0312V60.3021L56.4657 59.4271L56.9751 58.8438L57.63 58.4792L58.1393 58.3333ZM87.2452 74.8123L86.5176 74.6665L86.4448 74.7394V79.2603L86.5176 79.3332L87.0269 79.2603L87.6818 78.9686L88.1912 78.5311L88.555 77.9478L88.7733 77.2915V76.7082L88.7005 76.3436L88.3367 75.6144L87.8274 75.104L87.2452 74.8123Z" fill="#FDFEEC"/>
</svg>
